<svg width="498" height="154" viewBox="0 0 498 154" fill="none" xmlns="http://www.w3.org/2000/svg">
<g filter="url(#filter0_di_150_8)">
<path d="M20.2775 128C15.4988 128 12.0855 127.061 10.0375 125.184C7.9895 123.307 6.9655 120.619 6.9655 117.12C6.9655 115.413 7.0935 112.512 7.3495 108.416C7.6055 104.235 7.94683 99.4987 8.3735 94.208C8.80017 88.9173 9.22683 83.328 9.6535 77.44C10.0802 71.552 10.5068 66.0053 10.9335 60.8C11.3602 55.5947 11.7015 51.0293 11.9575 47.104C12.2135 43.1787 12.3415 40.4907 12.3415 39.04C12.3415 37.76 13.0242 37.12 14.3895 37.12H21.4295C26.2082 37.12 29.4935 38.0587 31.2855 39.936C33.1628 41.728 34.1015 44.416 34.1015 48C34.1015 48.4267 34.0588 48.8107 33.9735 49.152C33.9735 49.4933 33.9735 49.8773 33.9735 50.304L29.7495 110.08H52.7895C53.3015 110.08 53.7708 110.251 54.1975 110.592C54.6242 110.848 54.8375 111.275 54.8375 111.872L54.3255 119.424C54.1548 121.984 53.4295 124.075 52.1495 125.696C50.9548 127.232 48.4375 128 44.5975 128H20.2775ZM77.6525 128C72.8738 128 69.4605 127.061 67.4125 125.184C65.3645 123.307 64.3405 120.619 64.3405 117.12C64.3405 115.413 64.4685 112.512 64.7245 108.416C64.9805 104.235 65.3218 99.4987 65.7485 94.208C66.1752 88.9173 66.6018 83.328 67.0285 77.44C67.4552 71.552 67.8818 66.0053 68.3085 60.8C68.7352 55.5947 69.0765 51.0293 69.3325 47.104C69.5885 43.1787 69.7165 40.4907 69.7165 39.04C69.7165 37.76 70.3992 37.12 71.7645 37.12H78.8045C84.0098 37.12 87.5085 38.2293 89.3005 40.448C91.0925 42.6667 91.9885 45.952 91.9885 50.304C91.9885 50.7307 91.9032 52.096 91.7325 54.4C91.6472 56.704 91.4765 59.6053 91.2205 63.104C90.9645 66.6027 90.6658 70.528 90.3245 74.88C90.0685 79.1467 89.7698 83.5413 89.4285 88.064C89.1725 92.5867 88.8738 97.024 88.5325 101.376C88.2765 105.643 88.0205 109.525 87.7645 113.024C87.5085 116.523 87.2952 119.467 87.1245 121.856C86.9538 124.16 86.8258 125.568 86.7405 126.08C86.6552 126.763 86.4845 127.275 86.2285 127.616C85.9725 127.872 85.4605 128 84.6925 128H77.6525ZM128.783 91.008L126.351 126.08C126.265 126.763 126.18 127.275 126.095 127.616C126.095 127.872 125.711 128 124.943 128H117.903C113.124 128 109.711 127.061 107.663 125.184C105.615 123.307 104.591 120.619 104.591 117.12C104.591 115.413 104.719 112.512 104.975 108.416C105.231 104.235 105.572 99.4987 105.999 94.208C106.425 88.9173 106.852 83.328 107.279 77.44C107.705 71.552 108.132 66.0053 108.559 60.8C108.985 55.5947 109.327 51.0293 109.583 47.104C109.839 43.1787 109.967 40.4907 109.967 39.04C109.967 37.76 110.649 37.12 112.015 37.12H157.071C157.583 37.12 158.052 37.248 158.479 37.504C158.905 37.76 159.119 38.2293 159.119 38.912L158.607 46.464C158.436 49.024 157.711 51.1147 156.431 52.736C155.236 54.272 152.719 55.04 148.879 55.04H131.215L129.935 73.088H148.111C148.623 73.088 149.092 73.216 149.519 73.472C149.945 73.728 150.159 74.1973 150.159 74.88L149.647 82.432C149.476 84.992 148.751 87.0827 147.471 88.704C146.276 90.24 143.759 91.008 139.919 91.008H128.783ZM177.278 128C172.499 128 169.086 127.061 167.038 125.184C164.99 123.307 163.966 120.619 163.966 117.12C163.966 115.413 164.094 112.512 164.35 108.416C164.606 104.235 164.947 99.4987 165.374 94.208C165.8 88.9173 166.227 83.328 166.654 77.44C167.08 71.552 167.507 66.0053 167.934 60.8C168.36 55.5947 168.702 51.0293 168.958 47.104C169.214 43.1787 169.342 40.4907 169.342 39.04C169.342 37.76 170.024 37.12 171.39 37.12H216.446C216.958 37.12 217.427 37.248 217.854 37.504C218.28 37.76 218.494 38.2293 218.494 38.912L217.982 46.464C217.811 49.024 217.086 51.1147 215.806 52.736C214.611 54.272 212.094 55.04 208.254 55.04H190.59L189.31 73.088H207.486C207.998 73.088 208.467 73.216 208.894 73.472C209.32 73.728 209.534 74.1973 209.534 74.88L209.022 82.432C208.851 84.992 208.126 87.0827 206.846 88.704C205.651 90.24 203.134 91.008 199.294 91.008H188.158L186.75 110.08H214.91C215.422 110.08 215.891 110.251 216.318 110.592C216.744 110.848 216.958 111.275 216.958 111.872L216.446 119.424C216.275 121.984 215.55 124.075 214.27 125.696C213.075 127.232 210.558 128 206.718 128H177.278Z" fill="white"/>
<path d="M263.87 70C262.078 70 260.798 69.648 260.03 68.944C259.262 68.24 258.878 67.232 258.878 65.92C258.878 65.28 258.926 64.192 259.022 62.656C259.118 61.088 259.246 59.312 259.406 57.328C259.566 55.344 259.726 53.248 259.886 51.04C260.046 48.832 260.206 46.752 260.366 44.8C260.526 42.848 260.654 41.136 260.75 39.664C260.846 38.192 260.894 37.184 260.894 36.64C260.894 36.16 261.15 35.92 261.662 35.92H264.302C266.254 35.92 267.566 36.336 268.238 37.168C268.91 38 269.246 39.232 269.246 40.864C269.246 41.024 269.214 41.536 269.15 42.4C269.118 43.264 269.054 44.352 268.958 45.664C268.862 46.976 268.75 48.448 268.622 50.08C268.526 51.68 268.414 53.328 268.286 55.024C268.19 56.72 268.078 58.384 267.95 60.016C267.854 61.616 267.758 63.072 267.662 64.384C267.566 65.696 267.486 66.8 267.422 67.696C267.358 68.56 267.31 69.088 267.278 69.28C267.246 69.536 267.182 69.728 267.086 69.856C266.99 69.952 266.798 70 266.51 70H263.87ZM295.475 70C294.163 70 293.187 69.808 292.547 69.424C291.907 69.04 291.443 68.56 291.155 67.984C289.491 64.56 287.923 61.28 286.451 58.144C285.011 55.008 283.539 51.84 282.035 48.64C282.067 52.096 282.115 55.536 282.179 58.96C282.243 62.384 282.307 65.824 282.371 69.28C282.371 69.76 282.115 70 281.603 70H278.963C277.139 70 275.843 69.648 275.075 68.944C274.339 68.208 273.971 67.136 273.971 65.728C273.971 65.344 273.987 64.704 274.019 63.808C274.083 62.88 274.163 61.792 274.259 60.544C274.355 59.296 274.451 57.936 274.547 56.464C274.675 54.96 274.803 53.44 274.931 51.904C275.123 49.472 275.283 47.456 275.411 45.856C275.539 44.256 275.635 42.912 275.699 41.824C275.795 40.704 275.859 39.76 275.891 38.992C275.923 38.192 275.955 37.408 275.987 36.64C275.987 36.16 276.243 35.92 276.755 35.92H280.595C281.651 35.92 282.515 36.048 283.187 36.304C283.859 36.528 284.403 36.848 284.819 37.264C285.267 37.68 285.619 38.16 285.875 38.704C286.131 39.216 286.371 39.76 286.595 40.336C287.363 42.32 288.035 44.032 288.611 45.472C289.219 46.912 289.747 48.176 290.195 49.264C290.643 50.352 291.027 51.296 291.347 52.096C291.699 52.896 292.019 53.632 292.307 54.304C292.595 54.976 292.883 55.632 293.171 56.272C293.459 56.88 293.763 57.552 294.083 58.288C294.083 56.4 294.067 54.464 294.035 52.48C294.035 50.464 294.019 48.512 293.987 46.624C293.987 44.704 293.971 42.864 293.939 41.104C293.939 39.344 293.939 37.76 293.939 36.352C293.939 36.064 294.211 35.92 294.755 35.92H297.395C298.451 35.92 299.283 36.032 299.891 36.256C300.531 36.448 301.027 36.752 301.379 37.168C301.731 37.552 301.955 38.032 302.051 38.608C302.179 39.184 302.243 39.84 302.243 40.576C302.243 41.376 302.195 42.608 302.099 44.272C302.003 45.904 301.891 47.744 301.763 49.792C301.635 51.84 301.491 53.968 301.331 56.176C301.171 58.352 301.011 60.368 300.851 62.224C300.723 64.08 300.595 65.664 300.467 66.976C300.371 68.256 300.307 69.008 300.275 69.232C300.275 69.488 300.179 69.68 299.987 69.808C299.827 69.936 299.635 70 299.411 70H295.475ZM257.25 100.64L255.426 127.28C255.394 127.76 255.218 128 254.898 128H252.258C250.466 128 249.186 127.648 248.418 126.944C247.65 126.24 247.266 125.232 247.266 123.92C247.266 123.44 247.282 122.72 247.314 121.76C247.378 120.8 247.458 119.68 247.554 118.4C247.65 117.088 247.746 115.68 247.842 114.176C247.97 112.64 248.098 111.104 248.226 109.568C248.354 108 248.466 106.448 248.562 104.912C248.69 103.376 248.802 101.952 248.898 100.64H241.218C240.866 100.64 240.69 100.416 240.69 99.968L240.834 97.28C240.866 96.864 240.93 96.464 241.026 96.08C241.154 95.664 241.346 95.296 241.602 94.976C241.858 94.656 242.178 94.4 242.562 94.208C242.978 94.016 243.474 93.92 244.05 93.92H265.506C265.698 93.92 265.874 93.968 266.034 94.064C266.194 94.16 266.274 94.336 266.274 94.592L266.082 97.424C266.018 98.384 265.746 99.168 265.266 99.776C264.818 100.352 263.874 100.64 262.434 100.64H257.25ZM290.079 128C288.287 128 287.007 127.648 286.239 126.944C285.471 126.24 285.087 125.232 285.087 123.92C285.087 123.216 285.151 121.968 285.279 120.176C285.407 118.384 285.551 116.368 285.711 114.128H277.167L276.207 127.28C276.175 127.536 276.111 127.728 276.015 127.856C275.919 127.952 275.727 128 275.439 128H272.799C271.007 128 269.727 127.648 268.959 126.944C268.191 126.24 267.807 125.232 267.807 123.92C267.807 123.28 267.855 122.192 267.951 120.656C268.047 119.088 268.175 117.312 268.335 115.328C268.495 113.344 268.655 111.248 268.815 109.04C268.975 106.832 269.135 104.752 269.295 102.8C269.455 100.848 269.583 99.136 269.679 97.664C269.775 96.192 269.823 95.184 269.823 94.64C269.823 94.16 270.079 93.92 270.591 93.92H273.231C275.183 93.92 276.495 94.336 277.167 95.168C277.839 96 278.175 97.232 278.175 98.864C278.175 99.12 278.127 100.032 278.031 101.6C277.935 103.136 277.807 104.992 277.647 107.168H286.239C286.335 105.76 286.431 104.384 286.527 103.04C286.655 101.696 286.751 100.464 286.815 99.344C286.911 98.224 286.975 97.264 287.007 96.464C287.071 95.632 287.103 95.024 287.103 94.64C287.103 94.16 287.359 93.92 287.871 93.92H290.511C292.463 93.92 293.775 94.336 294.447 95.168C295.119 96 295.455 97.232 295.455 98.864C295.455 99.024 295.423 99.536 295.359 100.4C295.327 101.264 295.263 102.352 295.167 103.664C295.071 104.976 294.959 106.448 294.831 108.08C294.735 109.68 294.623 111.328 294.495 113.024C294.399 114.72 294.287 116.384 294.159 118.016C294.063 119.616 293.967 121.072 293.871 122.384C293.775 123.696 293.695 124.8 293.631 125.696C293.567 126.56 293.519 127.088 293.487 127.28C293.455 127.536 293.391 127.728 293.295 127.856C293.199 127.952 293.007 128 292.719 128H290.079ZM305.143 128C303.351 128 302.071 127.648 301.303 126.944C300.535 126.24 300.151 125.232 300.151 123.92C300.151 123.28 300.199 122.192 300.295 120.656C300.391 119.088 300.519 117.312 300.679 115.328C300.839 113.344 300.999 111.248 301.159 109.04C301.319 106.832 301.479 104.752 301.639 102.8C301.799 100.848 301.927 99.136 302.023 97.664C302.119 96.192 302.167 95.184 302.167 94.64C302.167 94.16 302.423 93.92 302.935 93.92H319.831C320.023 93.92 320.199 93.968 320.359 94.064C320.519 94.16 320.599 94.336 320.599 94.592L320.407 97.424C320.343 98.384 320.071 99.168 319.591 99.776C319.143 100.352 318.199 100.64 316.759 100.64H310.135L309.655 107.408H316.471C316.663 107.408 316.839 107.456 316.999 107.552C317.159 107.648 317.239 107.824 317.239 108.08L317.047 110.912C316.983 111.872 316.711 112.656 316.231 113.264C315.783 113.84 314.839 114.128 313.399 114.128H309.223L308.695 121.28H319.255C319.447 121.28 319.623 121.344 319.783 121.472C319.943 121.568 320.023 121.728 320.023 121.952L319.831 124.784C319.767 125.744 319.495 126.528 319.015 127.136C318.567 127.712 317.623 128 316.183 128H305.143Z" fill="white"/>
<path d="M409.622 86.272C409.366 88.832 408.982 91.6907 408.47 94.848C407.958 97.92 407.147 101.077 406.038 104.32C405.014 107.477 403.606 110.549 401.814 113.536C400.022 116.523 397.718 119.211 394.902 121.6C392.086 123.904 388.672 125.781 384.662 127.232C380.736 128.597 376.043 129.28 370.582 129.28C365.035 129.28 360.299 128.512 356.374 126.976C352.448 125.355 349.248 123.179 346.774 120.448C344.299 117.632 342.507 114.389 341.398 110.72C340.288 107.051 339.734 103.125 339.734 98.944C339.734 97.0667 339.819 94.5493 339.99 91.392C340.16 88.1493 340.374 84.6507 340.63 80.896C340.971 77.1413 341.312 73.2587 341.654 69.248C341.995 65.152 342.294 61.2693 342.55 57.6C342.891 53.9307 343.19 50.6453 343.446 47.744C343.702 44.7573 343.872 42.496 343.958 40.96C344.043 39.3387 344.256 38.3147 344.598 37.888C344.939 37.376 345.451 37.12 346.134 37.12H353.174C358.379 37.12 361.878 38.2293 363.67 40.448C365.462 42.6667 366.358 45.952 366.358 50.304C366.358 50.56 366.272 51.712 366.102 53.76C366.016 55.7227 365.846 58.1547 365.59 61.056C365.419 63.9573 365.206 67.1147 364.95 70.528C364.779 73.9413 364.566 77.184 364.31 80.256C364.139 83.328 363.968 86.016 363.798 88.32C363.712 90.624 363.67 92.16 363.67 92.928C363.67 94.3787 363.712 96.0427 363.798 97.92C363.968 99.7973 364.31 101.589 364.822 103.296C365.419 105.003 366.315 106.453 367.51 107.648C368.79 108.757 370.582 109.312 372.886 109.312C375.787 109.312 378.134 108.331 379.926 106.368C381.803 104.405 383.211 102.059 384.15 99.328C385.174 96.5973 385.856 93.824 386.198 91.008C386.624 88.192 386.923 85.888 387.094 84.096C387.435 79.744 387.776 75.264 388.118 70.656C388.544 66.048 388.886 61.7387 389.142 57.728C389.483 53.7173 389.739 50.2187 389.91 47.232C390.08 44.2453 390.166 42.1973 390.166 41.088C390.166 39.3813 390.294 38.3147 390.55 37.888C390.806 37.376 391.36 37.12 392.214 37.12H399.254C402.155 37.12 404.416 37.376 406.038 37.888C407.744 38.4 409.024 39.0827 409.878 39.936C410.731 40.7893 411.243 41.7707 411.414 42.88C411.67 43.9893 411.798 45.1413 411.798 46.336C411.798 47.4453 411.712 49.536 411.542 52.608C411.456 55.68 411.328 59.1787 411.158 63.104C410.987 67.0293 410.774 71.0827 410.518 75.264C410.262 79.4453 409.963 83.1147 409.622 86.272ZM493.357 119.68C493.357 120.363 492.93 121.259 492.076 122.368C491.309 123.392 490.199 124.416 488.749 125.44C487.383 126.464 485.762 127.36 483.885 128.128C482.093 128.896 480.173 129.28 478.125 129.28C474.967 129.28 472.194 128.299 469.805 126.336C467.415 124.288 465.239 121.515 463.277 118.016C461.399 114.517 459.65 110.379 458.029 105.6C456.407 100.736 454.743 95.488 453.037 89.856L448.173 93.056L445.741 126.08C445.655 126.763 445.485 127.275 445.229 127.616C444.973 127.872 444.461 128 443.693 128H436.653C431.789 128 428.333 127.061 426.285 125.184C424.322 123.221 423.341 120.363 423.341 116.608C423.341 115.413 423.383 113.621 423.469 111.232C423.639 108.757 423.853 105.899 424.109 102.656C424.365 99.328 424.621 95.7013 424.877 91.776C425.218 87.8507 425.559 83.84 425.901 79.744C426.498 71.552 426.967 65.0667 427.309 60.288C427.735 55.5093 428.034 51.7547 428.205 49.024C428.375 46.208 428.503 44.16 428.589 42.88C428.674 41.5147 428.717 40.2347 428.717 39.04C428.717 37.76 429.399 37.12 430.765 37.12H437.805C440.535 37.12 442.711 37.4187 444.333 38.016C446.039 38.528 447.362 39.296 448.301 40.32C449.239 41.344 449.879 42.624 450.221 44.16C450.562 45.6107 450.733 47.3173 450.733 49.28C450.733 51.2427 450.605 54.4427 450.349 58.88C450.178 63.232 449.879 68.1387 449.453 73.6C452.354 70.016 455.81 65.5787 459.821 60.288C463.917 54.9973 468.866 48.4693 474.669 40.704C474.925 40.3627 475.266 39.936 475.693 39.424C476.205 38.8267 476.717 38.272 477.229 37.76C477.826 37.248 478.423 36.8213 479.021 36.48C479.703 36.0533 480.343 35.84 480.941 35.84C482.05 35.84 483.33 36.4373 484.781 37.632C486.231 38.7413 487.597 40.1493 488.877 41.856C490.157 43.4773 491.223 45.184 492.076 46.976C493.015 48.6827 493.485 50.1333 493.485 51.328C493.485 53.8027 491.266 57.5147 486.829 62.464C482.391 67.328 476.034 72.96 467.757 79.36C469.207 81.8347 470.871 84.5227 472.749 87.424C474.626 90.24 476.503 93.1413 478.381 96.128C480.258 99.0293 482.093 101.888 483.885 104.704C485.677 107.435 487.255 109.909 488.621 112.128C490.071 114.261 491.223 116.011 492.076 117.376C492.93 118.741 493.357 119.509 493.357 119.68Z" fill="white"/>
</g>
<defs>
<filter id="filter0_di_150_8" x="2.96533" y="35.8401" width="494.519" height="101.44" filterUnits="userSpaceOnUse" color-interpolation-filters="sRGB">
<feFlood flood-opacity="0" result="BackgroundImageFix"/>
<feColorMatrix in="SourceAlpha" type="matrix" values="0 0 0 0 0 0 0 0 0 0 0 0 0 0 0 0 0 0 127 0" result="hardAlpha"/>
<feOffset dy="4"/>
<feGaussianBlur stdDeviation="2"/>
<feComposite in2="hardAlpha" operator="out"/>
<feColorMatrix type="matrix" values="0 0 0 0 0 0 0 0 0 0 0 0 0 0 0 0 0 0 0.25 0"/>
<feBlend mode="normal" in2="BackgroundImageFix" result="effect1_dropShadow_150_8"/>
<feBlend mode="normal" in="SourceGraphic" in2="effect1_dropShadow_150_8" result="shape"/>
<feColorMatrix in="SourceAlpha" type="matrix" values="0 0 0 0 0 0 0 0 0 0 0 0 0 0 0 0 0 0 127 0" result="hardAlpha"/>
<feOffset dy="4"/>
<feGaussianBlur stdDeviation="2"/>
<feComposite in2="hardAlpha" operator="arithmetic" k2="-1" k3="1"/>
<feColorMatrix type="matrix" values="0 0 0 0 0 0 0 0 0 0 0 0 0 0 0 0 0 0 0.25 0"/>
<feBlend mode="normal" in2="shape" result="effect2_innerShadow_150_8"/>
</filter>
</defs>
</svg>
