<svg width="75" height="75" viewBox="0 0 75 75" fill="none" xmlns="http://www.w3.org/2000/svg">
<path id="Vector" d="M37.5 0C30.0832 0 22.833 2.19934 16.6661 6.31989C10.4993 10.4404 5.69282 16.2971 2.85453 23.1494C0.016248 30.0016 -0.726377 37.5416 0.720569 44.8159C2.16751 52.0902 5.73904 58.772 10.9835 64.0165C16.228 69.261 22.9098 72.8325 30.1841 74.2794C37.4584 75.7264 44.9984 74.9838 51.8506 72.1455C58.7029 69.3072 64.5596 64.5007 68.6801 58.3339C72.8007 52.167 75 44.9168 75 37.5C75 27.5544 71.0491 18.0161 64.0165 10.9835C56.9839 3.95088 47.4456 0 37.5 0ZM56.25 51.7969C56.8716 52.4185 57.2208 53.2615 57.2208 54.1406C57.2208 55.0197 56.8716 55.8628 56.25 56.4844C55.6284 57.106 54.7853 57.4552 53.9063 57.4552C53.0272 57.4552 52.1841 57.106 51.5625 56.4844L37.5 42.4219L23.4375 56.5312C23.1297 56.839 22.7643 57.0832 22.3622 57.2497C21.9601 57.4163 21.529 57.5021 21.0938 57.5021C20.6585 57.5021 20.2275 57.4163 19.8253 57.2497C19.4232 57.0832 19.0578 56.839 18.75 56.5312C18.4422 56.2235 18.1981 55.8581 18.0315 55.4559C17.8649 55.0538 17.7792 54.6228 17.7792 54.1875C17.7792 53.7522 17.8649 53.3212 18.0315 52.9191C18.1981 52.5169 18.4422 52.1515 18.75 51.8437L32.8125 37.6875L18.3516 23.1094C17.73 22.4878 17.3808 21.6447 17.3808 20.7656C17.3808 19.8865 17.73 19.0435 18.3516 18.4219C18.9732 17.8003 19.8162 17.4511 20.6953 17.4511C21.5744 17.4511 22.4175 17.8003 23.0391 18.4219L37.5 33.0469L51.9609 18.5859C52.2687 18.2781 52.6341 18.034 53.0363 17.8674C53.4384 17.7009 53.8694 17.6151 54.3047 17.6151C54.74 17.6151 55.171 17.7009 55.5731 17.8674C55.9753 18.034 56.3407 18.2781 56.6484 18.5859C56.9562 18.8937 57.2004 19.2591 57.367 19.6613C57.5335 20.0634 57.6193 20.4944 57.6193 20.9297C57.6193 21.365 57.5335 21.796 57.367 22.1981C57.2004 22.6003 56.9562 22.9656 56.6484 23.2734L42.1875 37.6875L56.25 51.7969Z" fill="#C8102E"/>
</svg>
