<svg width="60" height="60" viewBox="0 0 60 60" fill="none" xmlns="http://www.w3.org/2000/svg">
<path d="M7.23867 49.4196L9.28945 46.721C9.6976 46.2008 9.91092 45.5185 9.88359 44.8205V44.3772C9.88359 43.3929 9.43359 42.8571 8.55469 42.8571H1.875C1.62636 42.8571 1.3879 42.97 1.21209 43.171C1.03627 43.3719 0.9375 43.6444 0.9375 43.9286V46.0714C0.9375 46.3556 1.03627 46.6281 1.21209 46.829C1.3879 47.03 1.62636 47.1429 1.875 47.1429H4.55039C4.09577 47.6663 3.66549 48.2166 3.26133 48.7915L2.60391 49.729C2.13516 50.408 1.98867 51.0857 2.27578 51.7219L2.39883 51.9804C2.75039 52.7518 3.13594 53.0357 3.83438 53.0357H4.38867C5.59922 53.0357 6.25664 53.3625 6.25664 54.2531C6.25664 54.8853 5.76445 55.354 4.57383 55.354C3.95172 55.3484 3.33632 55.2066 2.76094 54.9362C2.00039 54.4165 1.38516 54.4674 0.932813 55.354L0.277734 56.6009C-0.158203 57.4219 -0.0960938 58.1705 0.585938 58.7357C1.48945 59.3638 2.97422 60 4.92188 60C8.925 60 10.6055 56.9531 10.6055 54.0911C10.602 52.1652 9.53672 50.1054 7.23867 49.4196ZM58.125 25.7143H20.625C20.1277 25.7143 19.6508 25.9401 19.2992 26.3419C18.9475 26.7438 18.75 27.2888 18.75 27.8571V32.1429C18.75 32.7112 18.9475 33.2562 19.2992 33.6581C19.6508 34.06 20.1277 34.2857 20.625 34.2857H58.125C58.6223 34.2857 59.0992 34.06 59.4508 33.6581C59.8025 33.2562 60 32.7112 60 32.1429V27.8571C60 27.2888 59.8025 26.7438 59.4508 26.3419C59.0992 25.9401 58.6223 25.7143 58.125 25.7143ZM58.125 4.28571H20.625C20.1277 4.28571 19.6508 4.51148 19.2992 4.91334C18.9475 5.31521 18.75 5.86025 18.75 6.42857V10.7143C18.75 11.2826 18.9475 11.8277 19.2992 12.2295C19.6508 12.6314 20.1277 12.8571 20.625 12.8571H58.125C58.6223 12.8571 59.0992 12.6314 59.4508 12.2295C59.8025 11.8277 60 11.2826 60 10.7143V6.42857C60 5.86025 59.8025 5.31521 59.4508 4.91334C59.0992 4.51148 58.6223 4.28571 58.125 4.28571ZM58.125 47.1429H20.625C20.1277 47.1429 19.6508 47.3686 19.2992 47.7705C18.9475 48.1723 18.75 48.7174 18.75 49.2857V53.5714C18.75 54.1397 18.9475 54.6848 19.2992 55.0867C19.6508 55.4885 20.1277 55.7143 20.625 55.7143H58.125C58.6223 55.7143 59.0992 55.4885 59.4508 55.0867C59.8025 54.6848 60 54.1397 60 53.5714V49.2857C60 48.7174 59.8025 48.1723 59.4508 47.7705C59.0992 47.3686 58.6223 47.1429 58.125 47.1429ZM1.875 17.1429H9.375C9.62364 17.1429 9.8621 17.03 10.0379 16.829C10.2137 16.6281 10.3125 16.3556 10.3125 16.0714V13.9286C10.3125 13.6444 10.2137 13.3719 10.0379 13.171C9.8621 12.97 9.62364 12.8571 9.375 12.8571H7.5V1.07143C7.5 0.787268 7.40123 0.514746 7.22541 0.313814C7.0496 0.112883 6.81114 0 6.5625 0H3.75C3.57623 0.000354437 3.40597 0.0558973 3.25822 0.160428C3.11047 0.264959 2.99104 0.414364 2.91328 0.591964L1.97578 2.73482C1.90432 2.89803 1.87052 3.07939 1.87759 3.26171C1.88466 3.44403 1.93236 3.62127 2.01617 3.77661C2.09998 3.93196 2.21712 4.06026 2.35648 4.14936C2.49585 4.23845 2.65281 4.28539 2.8125 4.28571H3.75V12.8571H1.875C1.62636 12.8571 1.3879 12.97 1.21209 13.171C1.03627 13.3719 0.9375 13.6444 0.9375 13.9286V16.0714C0.9375 16.3556 1.03627 16.6281 1.21209 16.829C1.3879 17.03 1.62636 17.1429 1.875 17.1429ZM1.4168 38.5714H9.375C9.62364 38.5714 9.8621 38.4585 10.0379 38.2576C10.2137 38.0567 10.3125 37.7842 10.3125 37.5V35.3571C10.3125 35.073 10.2137 34.8005 10.0379 34.5995C9.8621 34.3986 9.62364 34.2857 9.375 34.2857H4.84219C5.22773 32.9076 10.507 31.7839 10.507 26.7268C10.507 22.8348 7.57734 21.4286 5.2957 21.4286C2.79258 21.4286 1.33477 22.7679 0.554297 23.9397C0.0421875 24.6884 0.202734 25.3915 0.882422 25.9982L1.88789 26.9196C2.54531 27.5304 3.17695 27.2504 3.77695 26.5929C4.07291 26.2614 4.47121 26.0767 4.88555 26.0786C5.27578 26.0786 5.97305 26.2875 5.97305 27.2504C5.97656 28.954 0 30.1754 0 36.5076V37.0433C0 38.0357 0.595312 38.5714 1.4168 38.5714Z" fill="#012169"/>
</svg>
