<svg width="57" height="60" viewBox="0 0 57 60" fill="none" xmlns="http://www.w3.org/2000/svg">
<path d="M25.4541 24.0865C25.4541 25.5927 26.6752 26.8137 28.1813 26.8137C29.6874 26.8137 30.9085 25.5927 30.9085 24.0865H25.4541ZM30.9085 2.72719C30.9085 1.22102 29.6874 0 28.1813 0C26.6752 0 25.4541 1.22102 25.4541 2.72719H30.9085ZM18.4028 12.4053C19.7735 11.7811 20.3787 10.1639 19.7545 8.79311C19.1304 7.42235 17.5131 6.81717 16.1423 7.44137L18.4028 12.4053ZM2.72755 32.399L0 32.3848L0.000546178 32.4306L2.72755 32.399ZM28.1813 57.2709L28.2126 54.5438C28.1918 54.5438 28.1708 54.5438 28.15 54.5438L28.1813 57.2709ZM53.6351 32.399L56.3626 32.4306L56.3622 32.3848L53.6351 32.399ZM40.2202 7.44137C38.8493 6.81717 37.2323 7.42235 36.6079 8.79311C35.984 10.1639 36.589 11.7811 37.9599 12.4053L40.2202 7.44137ZM30.9085 24.0865V2.72719H25.4541V24.0865H30.9085ZM16.1423 7.44137C6.3581 11.8968 0.0563255 21.6339 0 32.3848L5.4547 32.4132C5.4999 23.7897 10.5544 15.9791 18.4028 12.4053L16.1423 7.44137ZM0.000546178 32.4306C0.179813 47.8334 12.8101 60.1749 28.2126 59.9981L28.15 54.5438C15.7593 54.6863 5.59877 44.7579 5.45456 32.3674L0.000546178 32.4306ZM28.15 59.9981C43.5525 60.1749 56.1837 47.8334 56.3626 32.4306L50.9082 32.3674C50.7639 44.7579 40.6035 54.6863 28.2126 54.5438L28.15 59.9981ZM56.3622 32.3848C56.3059 21.6339 50.0046 11.8968 40.2202 7.44137L37.9599 12.4053C45.808 15.9791 50.8628 23.7897 50.9079 32.4132L56.3622 32.3848Z" fill="#012169"/>
</svg>
