<svg width="72" height="60" viewBox="0 0 72 60" fill="none" xmlns="http://www.w3.org/2000/svg">
<path d="M19.3889 0.49017C19.2341 0.334803 19.0501 0.211527 18.8475 0.127413C18.6449 0.0432987 18.4277 0 18.2084 0C17.9891 0 17.7719 0.0432987 17.5693 0.127413C17.3667 0.211527 17.1828 0.334803 17.0279 0.49017L8.18409 9.28263L5.03153 6.21061C4.8767 6.05525 4.69272 5.93197 4.49015 5.84786C4.28758 5.76374 4.07039 5.72044 3.85105 5.72044C3.63171 5.72044 3.41453 5.76374 3.21195 5.84786C3.00938 5.93197 2.8254 6.05525 2.67058 6.21061L0.49017 8.3938C0.334803 8.54863 0.211527 8.7326 0.127413 8.93517C0.0432987 9.13775 0 9.35493 0 9.57427C0 9.79362 0.0432987 10.0108 0.127413 10.2134C0.211527 10.4159 0.334803 10.5999 0.49017 10.7547L7.09944 17.3376C7.42934 17.6512 7.86711 17.8261 8.32227 17.8261C8.77744 17.8261 9.21521 17.6512 9.54511 17.3376L11.7102 15.1683L21.7373 5.14263C22.0497 4.82996 22.2263 4.40672 22.2286 3.96472C22.231 3.52273 22.0589 3.09764 21.7498 2.78168L19.3889 0.49017ZM19.3889 22.5984C19.2341 22.443 19.0501 22.3197 18.8475 22.2356C18.6449 22.1515 18.4277 22.1082 18.2084 22.1082C17.9891 22.1082 17.7719 22.1515 17.5693 22.2356C17.3667 22.3197 17.1828 22.443 17.0279 22.5984L8.18409 31.4478L5.03153 28.3785C4.8767 28.2232 4.69272 28.0999 4.49015 28.0158C4.28758 27.9317 4.07039 27.8884 3.85105 27.8884C3.63171 27.8884 3.41453 27.9317 3.21195 28.0158C3.00938 28.0999 2.8254 28.2232 2.67058 28.3785L0.49017 30.5576C0.334803 30.7124 0.211527 30.8964 0.127413 31.0989C0.0432987 31.3015 0 31.5187 0 31.738C0 31.9574 0.0432987 32.1746 0.127413 32.3771C0.211527 32.5797 0.334803 32.7637 0.49017 32.9185L7.08278 39.5153C7.41244 39.8288 7.84998 40.0036 8.30491 40.0036C8.75985 40.0036 9.19738 39.8288 9.52705 39.5153L11.7075 37.3363L21.7346 27.3064C22.0458 26.9959 22.2217 26.575 22.2241 26.1354C22.2264 25.6958 22.0549 25.2731 21.7471 24.9593L19.3889 22.5984ZM8.88821 46.6676C5.20929 46.6676 2.14006 49.6535 2.14006 53.3338C2.14006 57.0141 5.21207 60 8.88821 60C10.6562 60 12.3518 59.2977 13.6019 58.0475C14.8521 56.7974 15.5544 55.1018 15.5544 53.3338C15.5544 51.5658 14.8521 49.8702 13.6019 48.6201C12.3518 47.3699 10.6562 46.6676 8.88821 46.6676ZM68.8841 48.8896H28.8868C28.2975 48.8896 27.7323 49.1238 27.3156 49.5405C26.8989 49.9572 26.6648 50.5224 26.6648 51.1117V55.5559C26.6648 56.1452 26.8989 56.7104 27.3156 57.1271C27.7323 57.5438 28.2975 57.7779 28.8868 57.7779H68.8841C69.4734 57.7779 70.0386 57.5438 70.4554 57.1271C70.8721 56.7104 71.1062 56.1452 71.1062 55.5559V51.1117C71.1062 50.5224 70.8721 49.9572 70.4554 49.5405C70.0386 49.1238 69.4734 48.8896 68.8841 48.8896ZM68.8841 4.44823H28.8868C28.2975 4.44823 27.7323 4.68234 27.3156 5.09906C26.8989 5.51578 26.6648 6.08097 26.6648 6.6703V11.1144C26.6648 11.7038 26.8989 12.269 27.3156 12.6857C27.7323 13.1024 28.2975 13.3365 28.8868 13.3365H68.8841C69.4734 13.3365 70.0386 13.1024 70.4554 12.6857C70.8721 12.269 71.1062 11.7038 71.1062 11.1144V6.6703C71.1062 6.08097 70.8721 5.51578 70.4554 5.09906C70.0386 4.68234 69.4734 4.44823 68.8841 4.44823ZM68.8841 26.6689H28.8868C28.2975 26.6689 27.7323 26.9031 27.3156 27.3198C26.8989 27.7365 26.6648 28.3017 26.6648 28.891V33.3352C26.6648 33.9245 26.8989 34.4897 27.3156 34.9064C27.7323 35.3231 28.2975 35.5572 28.8868 35.5572H68.8841C69.4734 35.5572 70.0386 35.3231 70.4554 34.9064C70.8721 34.4897 71.1062 33.9245 71.1062 33.3352V28.891C71.1062 28.3017 70.8721 27.7365 70.4554 27.3198C70.0386 26.9031 69.4734 26.6689 68.8841 26.6689Z" fill="#012169"/>
</svg>
