<svg width="81" height="60" viewBox="0 0 81 60" fill="none" xmlns="http://www.w3.org/2000/svg">
<path id="Vector" d="M41.2861 59.503L79.6372 32.065C80.3322 31.569 80.7418 30.7666 80.7439 29.9136C80.7439 29.9072 80.7439 29.9072 80.7439 29.9072C80.7418 29.049 80.3269 28.2486 79.6287 27.7505L41.2776 0.489416C40.4699 -0.0855665 39.4074 -0.159281 38.527 0.296703C37.6477 0.745316 37.0937 1.65728 37.0937 2.65139V15.4811L2.6485 15.48C1.18472 15.48 0 16.6647 0 18.1296L0.0010525 41.8671C-5.78525e-07 43.3298 1.18472 44.5156 2.65061 44.5166H37.0927V57.3505C37.0927 58.3404 37.6508 59.2492 38.5312 59.7063C39.4126 60.1612 40.4773 60.0833 41.2861 59.503Z" fill="#012169"/>
</svg>
