<svg width="81" height="60" viewBox="0 0 81 60" fill="none" xmlns="http://www.w3.org/2000/svg">
<path id="Vector" d="M39.4582 0.496441L1.1068 27.9347C0.411758 28.4307 0.00210618 29.2332 0 30.0862V30.0925C0.00210618 30.9508 0.417024 31.7511 1.11522 32.2492L39.4667 59.5106C40.2744 60.0856 41.337 60.1593 42.2173 59.7033C43.0967 59.2547 43.6506 58.3438 43.6506 57.3486V44.5188L78.0961 44.5198C79.5599 44.5198 80.7447 43.3351 80.7447 41.8703L80.7436 18.1325C80.7447 16.6698 79.5599 15.484 78.094 15.483H43.6516V2.65001C43.6516 1.66011 43.0935 0.751289 42.2121 0.294248C41.3317 -0.16174 40.267 -0.0827589 39.4582 0.496441Z" fill="#012169"/>
</svg>
