<svg width="66" height="64" viewBox="0 0 66 64" fill="none" xmlns="http://www.w3.org/2000/svg">
<path id="Vector" d="M37.7449 59.7136L34.4914 62.967C33.1138 64.3447 30.8862 64.3447 29.5232 62.967L1.0332 34.4917C-0.344401 33.1141 -0.344401 30.8864 1.0332 29.5235L29.5232 1.03345C30.9008 -0.344157 33.1285 -0.344157 34.4914 1.03345L37.7449 4.28694C39.1372 5.6792 39.1079 7.95078 37.6863 9.31373L20.0266 26.1381H62.1461C64.0953 26.1381 65.6634 27.7062 65.6634 29.6554V34.3451C65.6634 36.2943 64.0953 37.8624 62.1461 37.8624H20.0266L37.6863 54.6868C39.1225 56.0497 39.1518 58.3213 37.7449 59.7136Z" fill="white"/>
</svg>
