<svg width="60" height="64" viewBox="0 0 60 64" fill="none" xmlns="http://www.w3.org/2000/svg">
<path id="Vector" fill-rule="evenodd" clip-rule="evenodd" d="M56.7993 23.2606C58.1795 23.4101 59.249 22.0842 58.8035 20.7772L52.1557 1.28234C51.6741 -0.129252 49.8146 -0.455526 48.8761 0.706827L43.9811 6.77199C39.5704 4.57756 34.6648 3.47299 29.6859 3.58665C23.0909 3.73771 16.7245 6.01823 11.5485 10.0842C6.37249 14.1502 2.66785 19.7803 0.994412 26.1245C-0.679403 32.4684 -0.231234 39.1819 2.27132 45.2501C4.77388 51.3187 9.19485 56.4125 14.8658 59.7625C20.5371 63.1121 27.1507 64.5362 33.7077 63.8187C40.2647 63.1016 46.4085 60.2822 51.2119 55.7864C55.5527 51.7235 58.5851 46.4902 59.952 40.7487C60.194 39.734 59.4936 38.756 58.4602 38.5796L54.817 37.958C53.7832 37.7817 52.8094 38.4746 52.5469 39.4844C51.469 43.6323 49.2308 47.4071 46.075 50.361C42.4566 53.748 37.8278 55.8718 32.888 56.4122C27.9483 56.9526 22.9659 55.8797 18.6935 53.3564C14.421 50.8326 11.0909 46.9951 9.20548 42.4235C7.32012 37.8519 6.98247 32.7943 8.24343 28.015C9.50401 23.2356 12.2952 18.9941 16.1943 15.9311C20.0938 12.8677 24.89 11.1499 29.8583 11.0362C33.0605 10.963 36.222 11.5589 39.1461 12.7631L34.9424 17.9722C34.0039 19.1349 34.7271 20.8694 36.2178 21.0306L56.7993 23.2606Z" fill="white"/>
</svg>
