<svg width="76" height="76" viewBox="0 0 76 76" fill="none" xmlns="http://www.w3.org/2000/svg">
<path id="Vector" d="M38 0.5C17.3 0.5 0.5 17.3 0.5 38C0.5 58.7 17.3 75.5 38 75.5C58.7 75.5 75.5 58.7 75.5 38C75.5 17.3 58.7 0.5 38 0.5ZM27.8375 54.0875L14.375 40.625C12.9125 39.1625 12.9125 36.8 14.375 35.3375C15.8375 33.875 18.2 33.875 19.6625 35.3375L30.5 46.1375L56.3 20.3375C57.7625 18.875 60.125 18.875 61.5875 20.3375C63.05 21.8 63.05 24.1625 61.5875 25.625L33.125 54.0875C31.7 55.55 29.3 55.55 27.8375 54.0875Z" fill="#2A9918"/>
</svg>
