<svg width="136" height="136" viewBox="0 0 136 136" fill="none" xmlns="http://www.w3.org/2000/svg">
<path fill-rule="evenodd" clip-rule="evenodd" d="M67.9997 38.101L58.8499 28.9512L67.9997 19.8013L77.1496 28.9512L67.9997 38.101ZM40.6657 32.856C38.5095 30.6998 38.5095 27.2026 40.6657 25.0463L64.0949 1.6172C66.2511 -0.539065 69.7483 -0.539065 71.9046 1.6172L95.3337 25.0463C97.4899 27.2026 97.4899 30.6998 95.3337 32.856L71.9046 56.2851C69.7483 58.4414 66.2511 58.4414 64.0949 56.2851L40.6657 32.856ZM28.9512 77.1496L19.8013 67.9997L28.9512 58.8498L38.101 67.9997L28.9512 77.1496ZM1.6172 71.9046C-0.539065 69.7483 -0.539065 66.2511 1.6172 64.0948L25.0463 40.6657C27.2034 38.5095 30.6998 38.5095 32.856 40.6657L56.2851 64.0948C58.4422 66.2511 58.4414 69.7483 56.2851 71.9046L32.856 95.3337C30.6998 97.4899 27.2026 97.4899 25.0463 95.3337L1.6172 71.9046ZM58.8499 107.048L67.9997 116.198L77.1496 107.048L67.9997 97.8984L58.8499 107.048ZM40.6657 103.143C38.5095 105.3 38.5095 108.797 40.6657 110.953L64.0949 134.382C66.2511 136.538 69.7483 136.538 71.9046 134.382L95.3337 110.953C97.4899 108.797 97.4899 105.3 95.3337 103.143L71.9046 79.7143C69.7483 77.558 66.2511 77.558 64.0949 79.7143L40.6657 103.143ZM107.048 77.1496L97.8984 67.9997L107.048 58.8498L116.198 67.9997L107.048 77.1496ZM79.7143 71.9046C77.558 69.7483 77.558 66.2511 79.7143 64.0948L103.143 40.6657C105.3 38.5095 108.797 38.5095 110.953 40.6657L134.382 64.0948C136.539 66.2511 136.539 69.7483 134.382 71.9046L110.953 95.3337C108.797 97.4899 105.3 97.4899 103.143 95.3337L79.7143 71.9046Z" fill="#012169"/>
</svg>
